<?xml version="1.0" encoding="utf-8"?>
<?xml-stylesheet type="text/xsl" href="rss1.xsl"?>
<rss version="2.0" xmlns:atom="http://www.w3.org/2005/Atom" xmlns:content="http://purl.org/rss/1.0/modules/content/" xmlns:dc="http://purl.org/dc/elements/1.1/" xmlns:media="http://search.yahoo.com/mrss/">
<channel>
 <title>Getty</title>
 <link>http://www.gettyimg.com/</link>
 <atom:link href="http://www.gettyimg.com/" rel="self" type="application/rss+xml" />

 
                <item>
                <title><![CDATA[【PRORES HD】Wisin, Myke Towers, Maluma, Anitta, Los Legendarios - Mi Niña Remix [ProRes 2K]]]></title>
                <link><![CDATA[https://sharemania.us/threads/wisin-myke-towers-maluma-anitta-los-legendarios-mi-ni%C3%B1a-remix-prores-2k.239615/]]></link>
                <description><![CDATA[<article>
<blockquote class="messageText SelectQuoteContainer ugc baseHtml">
<div style="text-align: center"><img src="https://i.ibb.co/hm3pCF2/20240309192520.gif" class="bbCodeImage LbImage" alt="[​IMG]" data-url="https://i.ibb.co/hm3pCF2/20240309192520.gif" style=""><br>
​</div>
<div class="ToggleTriggerAnchor bbCodeSpoilerContainer">
<button type="button" class="button bbCodeSpoilerButton ToggleTrigger Tooltip JsOnly" data-target="> .SpoilerTarget"><span>Spoiler: <span class="SpoilerTitle">ProRes</span></span></button>
<div class="SpoilerTarget bbCodeSpoilerText">
<div class="bbCodeBlock bbCodeCode">
<div class="type">Code:</div>
<pre>General
Complete name                            : Wisin, Myke Towers, Maluma, Anitta, Los Legendarios - Mi Niña Remix.mp4
Format                                   : MPEG-4
Format profile                           : QuickTime
Codec ID                                 : qt   2005.03 (qt  )
File size                                : 14.8 GiB
Duration                                 : 4 min 27 s
Overall bit rate mode                    : Variable
Overall bit rate                         : 474 Mb/s
Frame rate                               : 23.976 FPS
Encoded date                             : 2021-02-24 02:40:03 UTC
Tagged date                              : 2021-02-24 03:07:38 UTC
Writing library                          : Apple QuickTime
TIM                                      : 00:00:00:00
TSC                                      : 24000
TSZ                                      : 1001

Video
ID                                       : 1
Format                                   : ProRes
Format version                           : Version 1
Format profile                           : 4444
Codec ID                                 : ap4h
Duration                                 : 4 min 27 s
Bit rate mode                            : Variable
Bit rate                                 : 473 Mb/s
Width                                    : 2 560 pixels
Height                                   : 1 440 pixels
Display aspect ratio                     : 16:9
Frame rate mode                          : Constant
Frame rate                               : 23.976 (24000/1001) FPS
Color space                              : YUVA
Chroma subsampling                       : 4:4:4
Scan type                                : Progressive
Bits/(Pixel*Frame)                       : 5.348
Stream size                              : 14.7 GiB (100%)
Writing library                          : Apple
Language                                 : English
Encoded date                             : 2021-02-24 02:40:03 UTC
Tagged date                              : 2021-02-24 02:40:03 UTC
Color primaries                          : BT.709
Transfer characteristics                 : BT.709
Matrix coefficients                      : BT.709

Audio
ID                                       : 2
Format                                   : PCM
Format settings                          : Little / Signed
Codec ID                                 : sowt
Duration                                 : 4 min 27 s
Bit rate mode                            : Constant
Bit rate                                 : 1 536 kb/s
Channel(s)                               : 2 channels
Channel layout                           : L R
Sampling rate                            : 48.0 kHz
Bit depth                                : 16 bits
Stream size                              : 48.9 MiB (0%)
Language                                 : English
Encoded date                             : 2021-02-24 02:40:03 UTC
Tagged date                              : 2021-02-24 02:40:03 UTC

Other
ID                                       : 3
Type                                     : Time code
Format                                   : QuickTime TC
Duration                                 : 4 min 27 s
Frame rate                               : 23.976 (24000/1001) FPS
Time code of first frame                 : 00:00:00:00
Time code of last frame                  : 00:04:26:23
Time code, stripped                      : Yes
Language                                 : English
Encoded date                             : 2021-02-24 02:40:03 UTC
Tagged date                              : 2021-02-24 02:40:03 UTC</pre>
</div><div style="text-align: center">​</div></div>
</div><div style="text-align: center"><br>
<div class="bbCodeBlock bbCodeVfcHH HiddenContent">
<div class="attribution type">Hidden Content:</div>
<blockquote>You must reply before you can see the hidden data contained here.</blockquote>
</div></div>
<div class="messageTextEndMarker">&nbsp;</div>
</blockquote>
</article>]]></description>
                <author><![CDATA[fstambuk]]></author>
                </item>

                </channel></rss>